<svg width="38" height="22" viewBox="0 0 38 22" fill="none" xmlns="http://www.w3.org/2000/svg">
<path d="M37.2431 21.9707H2.75692C2.61158 21.9712 2.47142 21.9168 2.36446 21.8184C2.2575 21.72 2.19162 21.5849 2.18 21.44L0.564612 0.753825C0.555817 0.649257 0.576177 0.544296 0.623432 0.450601C0.670687 0.356905 0.742988 0.278143 0.832305 0.223057C0.922167 0.168925 1.02509 0.14032 1.13 0.14032C1.2349 0.14032 1.33783 0.168925 1.42769 0.223057L23.9277 13.2477C24.0052 13.2782 24.0753 13.3251 24.1329 13.3853C24.1906 13.4454 24.2346 13.5174 24.2618 13.5962C24.289 13.6749 24.2988 13.7587 24.2906 13.8416C24.2823 13.9245 24.2562 14.0047 24.214 14.0765C24.1719 14.1484 24.1146 14.2103 24.0462 14.2579C23.9778 14.3056 23.9 14.3378 23.8179 14.3525C23.7359 14.3671 23.6516 14.3638 23.571 14.3428C23.4904 14.3218 23.4152 14.2836 23.3508 14.2307L1.79692 1.76921L3.2923 20.8169H37.2431C37.3961 20.8169 37.5428 20.8777 37.651 20.9859C37.7592 21.0941 37.82 21.2408 37.82 21.3938C37.82 21.5468 37.7592 21.6936 37.651 21.8018C37.5428 21.91 37.3961 21.9707 37.2431 21.9707Z" fill="black"/>
</svg>
