<svg width="6" height="6" viewBox="0 0 6 6" fill="none" xmlns="http://www.w3.org/2000/svg">
<path d="M3.33379 0.3C3.85222 0.298723 4.35938 0.451207 4.79115 0.738168C5.22292 1.02513 5.55989 1.43368 5.75947 1.91216C5.95904 2.39063 6.01225 2.91755 5.91236 3.42626C5.81247 3.93498 5.56398 4.40265 5.1983 4.77014C4.83262 5.13762 4.36618 5.38842 3.85796 5.49082C3.34974 5.59321 2.82258 5.5426 2.34312 5.34539C1.86367 5.14818 1.45346 4.81322 1.16437 4.38287C0.875287 3.95253 0.720306 3.44612 0.719026 2.92769C0.717324 2.58323 0.7837 2.24183 0.914341 1.92309C1.04498 1.60436 1.23732 1.31459 1.48029 1.07041C1.72326 0.826237 2.01209 0.632478 2.33017 0.500266C2.64825 0.368054 2.98933 0.299995 3.33379 0.3ZM4.91041 2.91692C4.90998 2.60656 4.81758 2.30328 4.64489 2.0454C4.4722 1.78752 4.22695 1.58661 3.94013 1.46803C3.65331 1.34946 3.33778 1.31855 3.0334 1.3792C2.72903 1.43985 2.44945 1.58935 2.22999 1.80881C2.01053 2.02827 1.86103 2.30785 1.80038 2.61223C1.73972 2.91661 1.77064 3.23213 1.88921 3.51895C2.00778 3.80577 2.2087 4.05102 2.46658 4.22371C2.72446 4.39641 3.02774 4.4888 3.3381 4.48923C3.7551 4.48923 4.15502 4.32358 4.44989 4.02871C4.74475 3.73385 4.91041 3.33392 4.91041 2.91692Z" fill="#E2B013"/>
</svg>
